<svg version="1.2" xmlns="http://www.w3.org/2000/svg" viewBox="0 0 960 960" width="960" height="960">
	<title>Limiter-edited</title>
	<style>
		.s0 { fill: #5f3370 } 
		.s1 { fill: #ffffff } 
	</style>
	<path id="path1" class="s0" d="m-64 0c359.04 0 718.08 0 1088 0 0 316.8 0 633.6 0 960-359.04 0-718.08 0-1088 0 0-316.8 0-633.6 0-960z"/>
	<path id="path3" class="s1" d="m687.52 191.79c-3.76 0.13-6.6 1.43-10.49 3.81q-2.37 1.46-4.81 2.78c-87.7 48.49-175.26 97.68-262.58 146.69-11.73 5.83-11.73 5.83-25.07 5.68-0.27 0-56.34 0.2-60.57 0.19-4.86 0.01-7.04 0.53-10.46 3.94-6.07 7.46-6.05 17.93-5.87 27.1-19.91-0.06-5.4 0.09-44.82-0.02-18.79 0.16-19.58 10.05-19.6 24.39q0.01 1.36 0.02 2.68c-0.2 71.82 0.19 143.64 0.11 215.45-0.04 9.63 0.12 27.24 25.85 26.94 2.97 0.02 7.66 0.03 13.85 0.04v97.53 5.26q0-0.35 0.01-0.7 0-0.35 0.02-0.7 0.02-0.35 0.04-0.7 0.02-0.34 0.05-0.69c0.21 2.08 0.68 4.1 1.38 5.94 0.71 1.85 1.65 3.51 2.76 4.88 1.12 1.38 2.4 2.47 3.79 3.2 1.39 0.74 2.85 1.12 4.33 1.12 1.48 0 2.95-0.38 4.34-1.12 1.38-0.74 2.67-1.82 3.78-3.2 1.12-1.38 2.05-3.03 2.76-4.88 0.71-1.85 1.18-3.86 1.38-5.95q0.03 0.35 0.06 0.71 0.02 0.35 0.04 0.7 0.01 0.35 0.02 0.71 0.01 0.35 0.01 0.71v-5.29-97.53c37.37-0.02 95.91-0.11 160.92-0.19v98.82 5.26q0-0.35 0.01-0.7 0.01-0.35 0.03-0.7 0.01-0.35 0.03-0.7 0.03-0.35 0.06-0.69c0.2 2.08 0.67 4.1 1.38 5.94 0.71 1.85 1.64 3.5 2.76 4.88 1.12 1.38 2.4 2.47 3.79 3.2 1.38 0.74 2.85 1.12 4.33 1.12 1.48 0 2.95-0.38 4.33-1.12 1.39-0.74 2.67-1.82 3.79-3.2 1.12-1.38 2.05-3.03 2.76-4.88 0.7-1.85 1.17-3.86 1.38-5.95q0.03 0.35 0.05 0.71 0.03 0.35 0.04 0.7 0.02 0.35 0.03 0.71 0.01 0.35 0.01 0.71v-5.29-98.85c50.32-0.05 103.3-0.09 152.53-0.06v97.47 5.26q0-0.35 0.01-0.7 0.01-0.35 0.02-0.7 0.02-0.35 0.04-0.69 0.02-0.35 0.06-0.7c0.2 2.08 0.67 4.1 1.38 5.95 0.71 1.84 1.64 3.5 2.76 4.88 1.12 1.38 2.4 2.46 3.78 3.2 1.39 0.73 2.86 1.11 4.34 1.11 1.48 0 2.95-0.38 4.33-1.12 1.39-0.73 2.67-1.82 3.79-3.2 1.11-1.38 2.05-3.03 2.75-4.88 0.71-1.85 1.18-3.86 1.39-5.94q0.03 0.35 0.05 0.7 0.03 0.35 0.04 0.7 0.02 0.36 0.03 0.71 0 0.36 0.01 0.71v-5.29-97.46c10.35 0.01 20.48 0.03 30.32 0.04 0 0 15.11 0.2 15.25-15.88 0.07-189.04 0.03-41.38 0.09-197.29-0.24-13.18-7.22-28.86-23.35-29.41-1.24 0.01-1.24 0.01-2.45 0.02-68.03-0.42-136.05-0.2-204.08-0.6-1.91-4.75-4.44-9.15-6.92-13.61-1.91-2.87-3.65-5.92-6.08-8.39-4.69-3.16-8.91-4.46-14.54-4.45-0.79 0.02-28.1 0.4-30.46 0.45 0.53-9.89 0.58-10.6 1-13 28.54-14.27 190.55-107.49 260.99-145.25 3.65-1.97 7.01-3.84 10.01-6.75 3.49-4.33 3.35-7.65 3-13-1.87-5.62-6.88-9.29-12-12-1.52-0.23-2.87-0.32-4.12-0.28z"/>
</svg>